<?xml version="1.0" encoding="UTF-8" standalone="no"?>
<svg
   xmlns:dc="http://purl.org/dc/elements/1.1/"
   xmlns:cc="http://creativecommons.org/ns#"
   xmlns:rdf="http://www.w3.org/1999/02/22-rdf-syntax-ns#"
   xmlns:svg="http://www.w3.org/2000/svg"
   xmlns="http://www.w3.org/2000/svg"
   viewBox="0 0 775.1333 736.12"
   height="736.12"
   width="775.1333"
   xml:space="preserve"
   id="svg2"
   version="1.1"><metadata
     id="metadata8"><rdf:RDF><cc:Work
         rdf:about=""><dc:format>image/svg+xml</dc:format><dc:type
           rdf:resource="http://purl.org/dc/dcmitype/StillImage" /></cc:Work></rdf:RDF></metadata><defs
     id="defs6" /><g
     transform="matrix(1.3333333,0,0,-1.3333333,0,736.12)"
     id="g10"><g
       transform="scale(0.1)"
       id="g12"><path
         id="path14"
         style="fill:#b1db18;fill-opacity:1;fill-rule:evenodd;stroke:none"
         d="m 816.934,2787.87 c 255.936,23.53 453.216,274.55 714.216,188.36 105.19,-34.75 206.87,-43.5 291.1,41.11 46.2,46.42 75.8,113.01 124.45,151.49 44.99,35.57 113.29,52.44 166.25,75.68 127.46,55.93 257.4,124.18 397.87,131.16 86.61,4.31 178.47,7.76 260.86,-17.39 57.48,-17.54 93.94,-53.42 143.32,-82.33 49.23,-28.83 97.4,-50.13 142.25,-81.67 72.12,-50.73 95.32,-88.49 188.59,-97.01 136.6,-12.48 289.59,26.67 421.63,25.43 76.96,-0.71 165.05,-29.07 239.83,-50.43 28.54,-8.15 77.44,-18.49 101.79,-32.54 26.33,-15.19 44.94,-51.65 75.51,-67.26 45.16,-23.07 120.64,-36.52 158.19,-70.66 38.83,-35.31 28.29,-95.73 63.23,-131.61 29.48,-30.31 83.27,-36.06 119.57,-45.7 53.05,-14.08 85.86,-41 133.06,-70.78 34.96,-22.05 82.59,-33.21 114.03,-54.97 25.89,-17.92 36.59,-44.33 65.3,-60.41 73.37,-41.07 227.03,-24.67 262.15,-112.33 20.77,-51.79 2.91,-152.33 8.66,-208.53 7.58,-74 19.01,-171.07 3.64,-245.15 -42.88,-206.76 -250.52,-310.76 -398.67,-428.5 -53.77,-42.73 -101.96,-83 -151.34,-130.95 -47.72,-46.35 -85.61,-100.79 -134.15,-146.28 -99.1,-92.81 -219.13,-181.2 -330.9,-267.221 C 3809.75,855 3561.36,769.969 3344.94,674.031 c -110.04,-48.793 -229.12,-41 -348.73,-46.34 -109.26,-4.882 -181.67,31.969 -281.74,60.379 -135.85,38.578 -279.17,63.739 -417.39,105.508 -114.22,34.5 -193.87,80.024 -293.31,144.43 -95.1,61.613 -195.52,109.092 -259.76,206.522 -35.76,54.23 -87.74,108.3 -149.36,140.81 -121.11,63.9 -247.11,141.54 -365.46,221.04 -182.98,122.92 -241.495,367.15 -363.28,534.11 -36.582,50.15 -90.762,77.04 -124.844,127.97 -43.347,64.8 -68.867,152.03 -86.73,227.39 -25.508,107.64 -53.66,274.61 41.105,354.24 41.922,35.24 99.797,24.11 153.094,31.46" /><path
         id="path16"
         style="fill:#75d1e2;fill-opacity:1;fill-rule:evenodd;stroke:none"
         d="m 631.512,3530.82 c 17.785,179.99 202.25,332.58 332.093,455.94 178.845,169.9 378.545,240.06 586.795,335.78 448.98,206.36 988.29,344.51 1492.51,349.19 269.57,2.52 472.7,-75.71 730.02,-112.15 92.76,-13.14 291.14,-96.49 378.91,-131.27 44.1,-17.48 69.99,-51.85 110.76,-84.3 90.13,-71.73 189.91,-140.34 291.6,-201.23 133.21,-79.76 270.82,-136.33 324.61,-287.61 31.76,-89.31 66.24,-175.37 92.73,-270.32 55.91,-200.37 148.1,-380.57 191.95,-596.36 22.77,-112.08 28.21,-217.91 28.21,-335.77 0,-104.33 28.12,-258.12 -11.12,-354.05 -168.1,-28.48 -371.66,21.91 -537.13,56.02 -79.89,55.34 -184.88,106.82 -278.7,155.24 -99.06,51.11 -167.18,157.09 -272.04,214.74 -130.66,71.85 -277.78,96.23 -417.91,123.84 -149.79,29.51 -271.68,14.67 -415.5,20.32 -53.82,99.31 -293.48,138.51 -397.72,168.91 -149.46,43.59 -290.7,108.46 -457.18,100.52 -145.79,-6.96 -280.88,-57.56 -398.71,-137.64 -105.22,-71.5 -183.24,-238.99 -312.31,-245.57 -180.94,-9.24 -295.49,98.63 -480.95,16.38 -148.27,-65.76 -287.219,-101.77 -421.86,-182.28 -205.359,-122.79 -263.535,73.53 -263.347,251.84 0.211,200.85 -18.325,401.38 45.515,587.01 19.41,56.44 46.282,102.85 68.254,158.9" /><path
         id="path18"
         style="fill:#206430;fill-opacity:1;fill-rule:evenodd;stroke:none"
         d="m 1538.81,3332.76 c -29.45,6.31 -76.67,6.6 -106.09,0 44.97,-88.09 114.13,-160.44 152.67,-245.22 -34.66,-1.28 -79.66,1.81 -106.09,0 16.45,-44.7 48.45,-80.67 75.04,-120.66 26.53,-39.91 50.73,-84.94 80.22,-116.78 -26.18,-17.71 -73.96,-2.93 -108.69,-7.78 37.76,-83.35 112.77,-165.1 152.68,-245.21 -36.23,0 -659.38,-11.49 -667.63,0 -40.631,-6.62 -48.135,36.6 -72.455,54.49 39.019,64.55 82.595,122.26 121.615,186.82 -32.02,8.92 -74.963,1.44 -111.267,3.9 47.632,86.63 105.467,157.93 155.257,241.32 -22.87,10.71 -73.51,0.18 -108.687,3.9 47.237,88.54 108.047,156.67 155.267,245.22 -29.9,9.39 -82.95,0.75 -108.69,3.89 81.17,128.33 166.93,249.74 248.43,377.56 2.2,0.7 2.44,-1.52 2.58,-3.9 63.65,-90.05 125.64,-188.96 188.91,-284.14 20.12,-30.25 45.15,-55.68 56.93,-93.41" /><path
         id="path20"
         style="fill:#206430;fill-opacity:1;fill-rule:evenodd;stroke:none"
         d="m 4585.7,3309.13 c -25.9,3.69 -67.42,3.86 -93.29,0 39.54,-51.49 100.35,-93.79 134.25,-143.35 -30.48,-0.75 -70.04,1.06 -93.3,0 14.47,-26.13 42.6,-47.16 65.99,-70.54 23.32,-23.32 44.61,-49.65 70.53,-68.26 -23.02,-10.35 -65.03,-1.71 -95.57,-4.55 33.21,-48.71 99.16,-96.52 134.25,-143.35 -31.86,0 -63.7,0 -95.56,0 41.03,-52.25 94.49,-92.09 136.53,-143.34 -31.87,0 -63.71,0 -95.57,0 39.99,-52.54 90.84,-94.22 136.51,-141.08 -130.44,-5.3 -270.76,-0.76 -405.01,-2.28 6.68,14.55 18.14,24.35 27.31,36.43 -97.59,79.12 -195.88,157.55 -295.79,234.34 -7.26,6.72 11.8,9.22 4.54,15.93 -35.71,-3.87 -42.32,21.4 -63.7,31.86 34.3,37.73 72.62,71.48 106.93,109.22 -28.15,5.21 -65.91,0.83 -97.83,2.27 41.88,50.64 92.73,92.32 136.51,141.07 -20.1,6.26 -64.64,0.11 -95.56,2.28 41.53,51.76 95,91.58 136.52,143.35 -26.29,5.49 -72.94,0.44 -95.57,2.27 71.37,75.02 146.78,145.99 218.44,220.71 1.93,0.42 2.15,-0.89 2.28,-2.27 55.95,-52.65 110.47,-110.47 166.09,-166.11 17.7,-17.68 39.71,-32.54 50.07,-54.6" /><path
         id="path22"
         style="fill:#4b8b32;fill-opacity:1;fill-rule:evenodd;stroke:none"
         d="m 3293.19,2989.92 c 202.85,38.3 373.73,95.02 589.97,120.62 88.5,10.48 699.72,-496.51 723.7,-516.36 69.24,-57.35 73.08,-179.85 153.61,-227.14 111.24,-65.33 241.89,-112.41 379.27,-144.41 5.41,3.7 0.86,16.45 2.37,23.71 2.68,-5.87 6.89,-18.01 2.37,-23.71 5.42,-7.28 17.36,-8.63 28.45,-10.77 -184.49,-6.28 -335.81,53.3 -474.09,103.44 -139.61,50.62 -258.69,124.26 -372.15,200.46 -107.46,72.15 -425.86,243.48 -454.59,249.04 -53.55,10.38 -463.15,-117.14 -530.91,-112.25 -45.7,3.3 -676.34,232.25 -728.44,231.99 -34.48,-0.17 -763.13,-237.57 -900.66,-340.96 -131.11,13.6 -426.54,84.9 -568.85,32.52 -148.748,-54.74 -278.654,-120.49 -412.455,-183.19 -7.055,47.46 -7.543,100.91 -7.101,155.18 45.918,24.07 87.367,61.06 128,94.83 128.933,107.18 314.706,212.72 522.266,299.33 132.73,55.37 17.38,44.9 371.32,-70.35 79.09,71.76 614.34,391.03 895.93,445.11 68.86,13.24 462.98,-221.44 651.99,-327.09" /><path
         id="path24"
         style="fill:#4b8b32;fill-opacity:1;fill-rule:evenodd;stroke:none"
         d="m 2552.29,2194.68 c 243.34,60.04 522.23,83.13 574.4,93.03 24.76,4.7 165.56,44.64 176.15,103.68 6,33.39 -31.07,50.66 -44.33,62.01 -14.01,11.95 -291.62,102.46 -389.5,212.48 0,0 -6.26,6.31 -7.55,8.9 38.88,-11.91 93.91,-34.33 136.9,-41.75 132.54,-22.91 301.68,-28.36 401.37,-117.28 30.3,-27.01 55.2,-69.49 53.24,-156.35 -6.7,-26.33 -17.94,-41.88 -24.57,-68.42 -71.11,-105.26 -163.22,-142.07 -250.39,-198.04" /><path
         id="path26"
         style="fill:#4b8b32;fill-opacity:1;fill-rule:evenodd;stroke:none"
         d="m 3184.44,2097.02 c 27.27,0 -424.37,-177.29 -346.52,-252.31 14.71,-14.19 36.96,-23.53 55.97,-29.32 16.38,-5.01 35.86,-13.27 52.64,-15.74 45.04,-6.6 676.78,-140.44 724.16,-163.43 93.92,-45.59 176.05,-126.01 247.11,-237.8 25.33,-63.72 -524.49,-273.71 -524.24,-257.34 0.3,19.71 -18.21,51.74 -27.3,65.14 -34.14,50.33 -86.25,81.86 -128.34,100.99 -42.33,19.23 -163.42,55.87 -178.84,58.63 -19.98,3.6 -40.33,5.87 -62.8,13.03 -21.06,6.72 -141.81,26.19 -177.49,35.84 -38.02,10.31 -80.18,16.73 -120.13,22.8 -61.09,9.27 -119.63,25.05 -178.84,35.83 -17.47,3.17 -34.76,7.28 -51.88,13.02 -110.05,36.96 -217.61,63.39 -301.71,185.69 -14.83,21.56 -40.37,75.38 -42.32,107.51 -3.76,61.73 26,116.19 34.12,156.35 46.07,85.82 103.02,131.66 170.66,172.65 18.14,11.02 204.61,80.68 223.6,86.12" /><path
         id="path28"
         style="fill:#cc9322;fill-opacity:1;fill-rule:evenodd;stroke:none"
         d="m 2661.57,2194.68 c 226.59,51 327.88,45.82 375.29,54.51 12.97,2.38 148.65,20.97 199.12,38.52 23.79,8.3 165.56,44.64 176.15,103.68 6,33.39 -31.07,50.66 -44.34,62.01 -14.01,11.95 -291.61,102.46 -389.49,212.48 0,0 -6.27,6.31 -7.56,8.9 38.88,-11.91 93.91,-34.33 136.91,-41.75 132.54,-22.91 301.68,-28.36 401.37,-117.28 30.3,-27.01 55.19,-69.49 53.24,-156.35 -6.71,-26.33 -17.94,-41.88 -24.57,-68.42 -71.11,-105.26 -163.22,-142.07 -250.39,-198.04" /><path
         id="path30"
         style="fill:#cc9322;fill-opacity:1;fill-rule:evenodd;stroke:none"
         d="m 3293.73,2097.02 c 27.27,0 -424.37,-177.29 -346.53,-252.31 14.72,-14.19 36.97,-23.53 55.97,-29.32 16.39,-5.01 35.86,-13.27 52.65,-15.74 45.03,-6.6 91.21,-16.12 135.1,-20.54 71.9,-7.21 135.42,-14.21 208.17,-28.88 15.8,-3.17 32.24,-3.23 46.41,-6.52 18.67,-4.32 24.42,-7.27 57.87,-12.98 40.7,-11.66 88.86,-24.29 130.53,-35.86 48.86,-13.58 98.69,-35.66 146.08,-58.65 93.92,-45.59 176.05,-126.01 247.11,-237.8 25.33,-63.72 -562.49,-332.26 -550.19,-315.97 8.63,11.4 25.69,42.26 25.95,58.63 0.3,19.71 -18.22,51.74 -27.31,65.14 -34.14,50.33 -86.24,81.86 -128.34,100.99 -42.33,19.23 -163.41,55.87 -178.84,58.63 -19.98,3.6 -40.33,5.87 -62.79,13.03 -21.07,6.72 -257.67,52.57 -297.63,58.64 -61.08,9.27 -119.62,25.05 -178.83,35.83 -17.47,3.17 -34.76,7.28 -51.88,13.02 -110.05,36.96 -217.62,63.39 -301.71,185.69 -14.83,21.56 -40.37,75.38 -42.33,107.51 -3.76,61.73 26.01,116.19 34.13,156.35 46.07,85.82 103.01,131.66 170.65,172.65 18.15,11.02 204.8,80.06 223.6,86.12" /><path
         id="path32"
         style="fill:#41b03c;fill-opacity:1;fill-rule:evenodd;stroke:none"
         d="m 4675.4,2389.24 c -129.42,25.79 -206.82,105.44 -196.87,291.35 8.14,151.78 70.46,314.28 126.57,428.84 20.63,42.14 42.69,86.75 68.29,111.87 28.8,28.26 71.23,39.6 106.48,9.32 57.26,-49.19 90.27,-156.2 120.55,-244.72 40.69,-118.95 72.97,-236.48 64.29,-386.89 -7.94,-137.18 -88.41,-199.5 -200.9,-212.09" /><path
         id="path34"
         style="fill:#7c161a;fill-opacity:1;fill-rule:evenodd;stroke:none"
         d="m 4778.74,2167.5 c -4.17,0 -8.34,0 -12.52,0 -35.05,5.49 -80.95,0.8 -120.16,2.35 12.09,126.59 17.43,259.55 30.04,385.69 -59.05,49.56 -118.27,98.97 -180.24,145.79 0,0.79 0,1.59 0,2.37 34.41,-8.81 64.57,-29.53 95.12,-47.05 14.46,-8.29 30.05,-17.27 45.06,-25.86 13.87,-7.95 28.25,-22.51 42.56,-21.16 3.99,40.92 5.66,84.05 10.02,124.62 -46.72,42.37 -104.85,86.51 -145.21,127.01 55.11,-22.71 96.76,-58.05 147.71,-84.67 3.39,43.07 5.85,87 10.01,129.34 -21.16,17.3 -42.95,37.94 -65.09,56.44 -22.37,18.72 -50.33,32.26 -62.58,54.09 45.24,-22.56 84.61,-50.63 130.18,-72.9 0.65,39.2 7.77,88.75 10.01,124.64 0.7,11.17 -7.89,36.86 12.52,35.28 6.1,-50.7 6.93,-106.37 10.01,-159.92 51.43,19.88 88.53,53.22 142.68,70.55 -20.5,-15.55 -42.67,-33.03 -70.08,-54.09 -17.14,-13.16 -64.44,-36.85 -70.1,-56.44 -2.57,-8.91 1.91,-20.76 2.51,-30.57 1.78,-29.55 0.15,-66.65 7.51,-96.42 51.14,28.77 98.36,61.24 155.21,84.67 -21.01,-19.52 -47.32,-39.8 -77.62,-63.51 -15.97,-12.51 -72.54,-48.17 -77.59,-65.84 -3.02,-10.53 1.96,-23.8 2.5,-35.27 1.41,-30.04 -0.66,-63.9 7.51,-91.71 29.91,16.83 61.32,34.84 92.63,51.72 31.43,16.96 62.7,35.93 95.13,44.68 -59.81,-51.21 -128.88,-93.71 -187.76,-145.79 5.68,-130.28 15.72,-256.48 20.03,-388.04" /><path
         id="path36"
         style="fill:#7c161a;fill-opacity:1;fill-rule:evenodd;stroke:none"
         d="m 3870.39,2290.71 c -9.84,15.97 -17.66,29.54 -29.92,43.08 18.44,43.5 -44.23,71.18 -13.32,97.99 53.43,-6.49 90.23,-29.62 84.18,-95.56 23.86,-34.54 55.4,-61.42 75.1,-100.12 9.88,-60.52 43.96,-118.14 20.47,-168.37 -17.83,-38.16 -72.84,-48.86 -111.48,-72.82 -30.77,-19.06 -66.34,-60.44 -59.16,-125.14 0.86,-7.79 7.54,-24.61 9.09,-34.13 7.86,-48.04 6.76,-102.34 13.66,-154.72 17.17,-130.41 37.82,-283.71 50.06,-420.94 4.23,-47.42 7.17,-95.1 11.37,-141.08 4.23,-46.15 5.99,-94.23 13.66,-136.521 8.42,-46.438 32.27,-50.66 72.8,-72.809 18.48,-10.09 57.14,-25.148 50.07,-47.789 -6.85,-21.89 -81.07,-12.91 -116.06,-11.371 -25.76,1.129 -61.33,-2.871 -70.52,6.82 -7.58,21.489 3.63,41.149 6.82,59.161 -7.29,14.039 -31.4,0.55 -43.23,6.828 -22.08,109.441 -14.83,244.851 -34.13,354.961 -17.89,102.14 -57.36,193.96 -77.36,284.41 -12.09,-5.82 -14.31,-22.75 -18.21,-34.12 -28.66,-83.75 -61.41,-174.2 -84.19,-268.49 -25.67,-106.34 -56.31,-214.45 -84.19,-318.55 1.51,-9.852 -15.93,-0.75 -18.2,-6.828 7.89,-43.063 15.8,-100.512 -40.96,-95.571 -9.86,0 -19.71,0 -29.58,0 -23.76,6.559 -65.71,-5.051 -75.08,15.938 -2.28,50.82 40.47,56.601 68.26,77.351 -1.83,21.68 -23.4,23.629 -27.3,43.231 55.12,155.529 89.09,336.279 125.14,514.239 20.31,100.25 36.05,187.86 27.3,302.62 -2.91,38.27 -1.23,77.7 -13.65,111.49 -40.28,-89.8 -81.75,-216.29 -136.51,-298.07 -20.33,-30.35 -47.6,-60.37 -56.89,-88.73 -7.62,-23.28 -1.64,-56.95 -22.76,-61.45 -18.62,-3.96 -24.81,12.37 -36.4,20.48 -0.48,35.17 2.88,74.17 -6.82,100.13 20.49,37.07 37.19,78.86 56.88,122.87 17.77,39.7 44.15,77.74 59.16,120.58 15.58,44.52 28.06,90.86 45.51,134.25 8.61,21.46 18.43,42.73 27.3,63.71 9.4,22.23 14.61,47.12 25.02,65.99 25.34,45.83 77.41,53.58 122.87,75.08 8.2,29.83 -12.96,45.44 -27.3,63.71 -12.71,16.23 -27.33,36.02 -34.12,56.88 -9.12,27.99 -6.62,59.72 -13.66,91.02 -3.03,13.48 -11.32,23.61 -11.38,38.68 -0.14,43.65 30.67,62.73 51.84,89.57 11.39,-3.7 28.42,-0.41 41.46,10.55 0,6.82 0,13.65 0,20.48 3.03,0 7.05,-4.96 10.09,-4.96 17.65,-23.91 53.77,-3.02 87.74,-8.7 51.47,-8.59 63,-51.3 59.16,-122.87 -1.2,-22.51 -1.29,-47.95 -4.55,-63.71 -1.85,-8.96 -10.43,-17.51 -13.65,-27.3 -3.14,-9.56 -1.47,-19.51 -4.55,-27.31 -16.59,-41.94 -56.8,-61.27 -31.86,-116.04 25.65,-10.75 58.68,-14.13 77.37,-31.86 19.14,9.75 51.55,15.6 79.64,9.11" /><path
         id="path38"
         style="fill:#7c161a;fill-opacity:1;fill-rule:evenodd;stroke:none"
         d="m 2971.37,1940.08 c 3.8,0 7.6,0 11.38,0 0,-0.76 0,-1.52 0,-2.27 36.49,-9.02 74.16,-16.86 109.22,-27.31 24.32,-36.77 55.71,-69.52 47.79,-131.97 -2.49,-19.59 -12.84,-43.56 -22.76,-59.16 -31.67,-49.72 -97.42,-54.41 -86.47,-118.31 21.54,-23.8 64.89,-30.13 97.84,-47.78 8.24,-4.42 14.35,-12.3 22.75,-15.94 49.53,-21.4 104.55,-2.94 147.91,15.94 6.95,-6.71 -1.96,-19.82 9.1,-25.04 16.69,-1.51 27.73,2.62 40.96,4.55 25.04,-29.2 5.26,-64.84 -20.48,-68.26 -28.33,-3.75 -58.12,19.27 -95.57,22.76 -23.18,2.16 -51.12,3.32 -72.81,0 -28.43,-4.36 -30.72,-25.4 -61.44,-25.04 -36.97,-31.73 -47.34,-81.34 -50.05,-145.61 -0.71,-16.76 3.58,-37.36 0,-54.61 -2.07,-9.96 -11.18,-17.89 -13.65,-27.31 -12.85,-48.94 -8.11,-101.11 -18.2,-154.72 -3.61,-19.15 -11.39,-43.88 -18.2,-68.26 -6.48,-23.119 -17.33,-50.689 -13.66,-65.99 8.26,-34.461 60.65,-34.191 63.71,-70.539 -23.34,-17.012 -108.98,-24.723 -127.42,2.277 -0.25,13.16 5.29,20.5 6.83,31.864 -28.11,26.437 -6.15,97.718 0,150.168 5.29,45.2 11.32,88.18 9.1,127.42 -38.47,-45.45 -66.6,-101.14 -97.84,-159.28 -13.94,-25.92 -31.92,-55.379 -45.51,-84.191 -18.97,-40.207 -28.72,-81.801 -61.44,-104.66 -4.57,-8.321 -1.72,-24.071 -6.82,-31.848 -38.68,-10.731 -116.99,-15.981 -129.7,20.469 0,3.039 0,6.07 0,9.101 13.8,23.379 50.35,23.977 72.82,38.68 5.09,9.867 -6,14.5 -4.56,27.309 46.09,77.351 90.25,174.14 134.25,261.67 21.16,42.09 53.5,82.13 56.88,136.51 0.62,9.96 -3.05,19.81 -2.27,29.59 2.44,30.5 19.61,62.27 15.92,97.84 -44.44,31.74 -107.05,36.14 -163.82,59.16 -25.42,10.3 -45.56,24.45 -79.64,27.31 0.8,20.43 -3.43,45.89 6.82,56.88 51.24,-9.27 163.48,-31.92 234.37,-13.66 41.11,10.6 100.07,32.32 75.09,93.29 -14.74,1.78 -34.34,-6.79 -47.78,2.28 -19.57,13.19 -23.41,78.82 -18.21,116.04 4.46,31.86 13.17,73.51 22.76,97.84 6.74,17.16 23.32,36.04 22.75,59.16 13.04,8.02 53.33,-17.71 50.05,13.65" /><path
         id="path40"
         style="fill:#7c161a;fill-opacity:1;fill-rule:evenodd;stroke:none"
         d="m 2345.29,2349.76 c 4.71,-11.35 16.38,-51.46 22.92,-99.55 9.04,-66.48 18.76,-134.7 -2.59,-138.48 -27.53,-4.89 -52.84,-2.98 -55.92,-8.09 -10.23,-16.96 37.11,-14.21 54.55,-16.96 16.72,-2.65 43.75,-10.76 53.73,-18.18 22.22,-16.52 47.39,-70.42 61.59,-103.2 18.78,-43.39 34.89,-77.58 56.88,-111.49 20.72,-31.97 43.42,-72.52 59.16,-109.22 15.43,-35.97 28.31,-91.84 50.06,-116.05 21.02,-23.4 58.48,-29.3 61.44,-72.81 0,-25.78 0,-51.57 0,-77.36 -22.2,-8.18 -45.57,-15.15 -70.54,-4.55 -14.96,23.47 -0.75,49.76 -4.55,75.08 -3.95,26.23 -34.85,73.41 -47.79,97.84 -50.18,94.74 -128.69,168.91 -184.3,252.57 -13.94,-22.07 -15.3,-48.52 -22.76,-72.81 -9.44,-30.75 -26.73,-56.7 -29.57,-91.01 -2.84,-34.18 8.04,-78.07 18.2,-113.77 27.86,-97.88 73.14,-200.08 102.39,-288.97 -23.59,-11.29 -60.44,2.15 -84.19,-6.84 -16.39,-6.19 -16.23,-17.68 -25.03,-31.84 0,-62.81 0,-124.07 0,-186.59 0,-93.7 -19.23,-199.652 29.58,-245.742 15.29,-14.418 76.15,-26.968 68.27,-61.429 -3.47,-15.149 -42.22,-18.75 -65.99,-9.098 -10.62,4.309 -28.04,25.66 -43.23,34.129 -22.63,12.601 -47.18,9.449 -50.07,38.68 -1.67,17 9.08,41.449 11.39,63.699 10.32,99.701 -5.85,216.481 -22.76,314.011 -3.28,18.94 -12.39,87.81 -34.13,86.46 -15.55,-0.95 -27.84,-55.07 -34.13,-79.63 -16.71,-65.26 -23.79,-121.51 -36.41,-186.58 -6.09,-31.43 -19.51,-60.31 -22.75,-88.742 -3.31,-29.097 4.25,-56.269 -11.38,-70.539 -8.17,-7.461 -22.92,-4.379 -36.4,-9.097 -18.78,-6.563 -30.91,-32.274 -54.61,-40.961 -21.57,-7.911 -48.41,-8.301 -68.26,11.379 20.77,55.539 81.31,46.089 109.22,95.57 15.03,26.648 20.97,68.84 25.02,113.77 7.91,87.5 11.92,166.23 0,250.29 -41.96,-0.42 -88.16,-18.63 -127.41,-6.84 29.53,56.72 61.9,122.52 91.01,193.41 19.74,48.08 37.78,103.82 54.61,156.99 5.85,18.52 15.93,36.34 18.2,52.35 9.68,68.2 -12.04,128.91 -43.23,168.37 -15.67,-34.31 -19.41,-71.23 -29.58,-104.66 -10.44,-34.33 -21.06,-67.46 -36.4,-97.85 -30.28,-59.93 -76.42,-104.67 -109.22,-159.27 -32.49,-21.44 -79.61,-52.56 -125.15,-29.58 0,11.38 0,22.75 0,34.13 19.01,15.13 41.22,27.05 75.09,27.3 34.76,60.04 82.86,120.47 104.67,207.07 10.11,40.16 19.18,83.26 29.58,125.14 15.8,63.68 16.83,145.26 65.61,168.02 9.08,4.23 25.36,10.73 33.47,12.64 60.2,14.17 65.21,24.25 53.16,30.03 -2.11,1 -17.71,1.77 -46.93,0.98 -11.77,-0.31 -25.98,12 -19.56,49.78 1.77,10.39 19.61,103.57 26.47,146.75 8.49,53.53 38.97,93.71 53.72,98.75 30.62,10.47 26.47,14.68 57.68,14.28 22.77,-0.28 46.91,-1.21 64.78,-14.28 24.6,-17.97 28.32,-37.59 32.39,-47.4" /><path
         id="path42"
         style="fill:#ffffff;fill-opacity:1;fill-rule:evenodd;stroke:none"
         d="m 2935.22,2949.94 c -39.45,0 -78.89,0 -118.33,0 -4.79,216.67 -1.11,441.81 -2.28,662.13 -75.84,5.31 -161.54,0.76 -241.18,2.28 0,37.17 0,74.33 0,111.49 80.4,0 160.8,0 241.18,0 0,71.3 0,142.59 0,213.89 41.17,-1.02 78.52,2.92 118.33,-2.28 5.26,-65.29 0.82,-140.27 2.28,-209.33 77.38,-6.81 170.63,2.26 248.01,-4.55 0,-34.89 0,-69.78 0,-104.67 -91.58,-6.37 -167.69,3.48 -248.01,-4.55 0,-221.47 0,-442.95 0,-664.41" /><path
         id="path44"
         style="fill:#41b03c;fill-opacity:1;fill-rule:evenodd;stroke:none"
         d="m 1303.46,2936.56 c -27.89,0.8 -74.7,-0.35 -103.15,0.57 49.78,-71.83 100.14,-138.67 144.11,-202.97 -30.48,-1.06 -80.57,0.46 -103.81,-1.04 24.35,-36.48 124.43,-168.46 147.04,-194.94 -22.46,-6.47 -95.18,-3.75 -125.71,-7.75 49.77,-67.27 119.57,-141.39 164.39,-201.1 -31.86,0 -621.779,-24.78 -643.166,-10 34.313,53.26 91.309,156.51 125.621,209.79 -28.152,7.36 -92.18,0.58 -124.101,2.62 52.925,70.31 120.546,132.07 160.839,200.08 -21.218,3.56 -88.957,-0.72 -119.89,2.34 50.41,71.5 100.492,128.82 149.515,201.66 -28.375,2.13 -83.57,2.72 -108.554,3.96 71.367,105.92 146.776,206.14 218.436,311.64 1.93,0.6 2.14,-1.25 2.28,-3.21 55.95,-74.33 198.97,-280.57 216.15,-311.65" /><path
         id="path46"
         style="fill:#345db3;fill-opacity:1;fill-rule:evenodd;stroke:none"
         d="m 2832.82,4624.38 c -316.96,0.01 -569.67,-59.29 -807.75,-141.07 -345.36,-118.64 -643.46,-317.62 -860.09,-564.29 -218.683,-249.01 -395.906,-559.59 -395.906,-1026.19 0,-143.11 29.977,-283.61 70.535,-402.74 118.086,-346.81 344.471,-613.46 612.071,-810.03 190.68,-140.05 389.49,-231.44 630.27,-320.83 56,-20.77 120.77,-37.92 184.31,-52.32 310.39,-70.38 736.12,-101.04 1069.41,-27.3 66.97,14.81 130.78,23.74 193.42,43.22 61.72,19.22 123.21,34.65 184.29,54.62 114.86,37.53 225.52,90.31 329.93,145.61 102.77,54.45 203.16,116.78 288.97,186.59 303.25,246.65 558.18,556.2 630.28,1026.18 34.06,222.02 1.04,450.74 -54.61,630.28 -37,119.37 -94.53,229 -152.46,323.1 -124.94,202.96 -276.33,353.13 -459.62,491.48 -182.31,137.61 -390.71,241.54 -630.27,320.82 -230.71,76.35 -519.89,137.55 -828.23,122.87 -1.5,-0.07 -3.04,0 -4.55,0 z m -77.36,896.49 c 100.87,0 201.75,0 302.62,0 1073.17,-69.7 1871.49,-430.15 2407.33,-1044.39 180.2,-206.56 332.18,-444.87 348.13,-800.93 0,-47.02 0,-94.04 0,-141.07 C 5778.37,3061.52 5609.49,2697.38 5429,2358.12 5248.24,2018.34 5031.83,1715.18 4805.55,1420.67 4581.82,1129.47 4340.26,846.168 4079.72,585.621 3948.23,454.129 3794.47,349.441 3613.27,271.621 3431.03,193.34 3227.23,128.07 2989.83,114.629 c -56.89,0 -113.78,0 -170.66,0 C 2347.6,154.871 1994.58,324.84 1731.55,587.898 1602.11,717.34 1478.88,855.93 1358.38,995.18 1237.44,1134.96 1117.44,1275.64 1005.71,1420.67 779.895,1713.81 562.668,2021 382.258,2358.12 200.434,2697.89 37.9297,3063.18 0,3534.48 c 0,47.79 0,95.57 0,143.35 5.39063,87.33 19.2734,172.1 38.6836,250.29 57.6992,232.45 173.8324,393.41 311.7224,550.64 535.836,610.95 1338.684,975.7 2405.054,1042.11" /><path
         id="path48"
         style="fill:#7c161a;fill-opacity:1;fill-rule:evenodd;stroke:none"
         d="M 2177.52,5377.65 C 1412.4,5230.72 823.996,4903.61 402.738,4422 291.285,4294.58 198.555,4175.79 138.801,4003.34 78.707,3829.93 57.0469,3618.89 86.4648,3400.36 113.055,3202.87 167.063,3025.38 229.816,2861.1 353.781,2536.58 520,2242.61 700.813,1966.88 972.012,1553.32 1277.28,1180.35 1606.4,824.66 1715.74,706.512 1823.41,585.059 1954.54,490.18 2203.86,309.789 2572.33,156.441 3012.57,189.84 c 200.57,15.211 383.55,65.469 546.1,136.508 162.46,71.023 301.91,152.422 420.93,261.672 117.44,107.789 224.88,231.109 332.2,350.41 325.08,361.33 624.27,741.33 885.12,1162.71 174.6,282.04 336.48,580.68 443.69,921.52 56.2,178.65 100.11,365.3 100.12,582.49 0.02,340.66 -121.67,561.19 -273.05,750.86 -151.28,189.57 -334.4,354.45 -530.15,493.76 -391.91,278.9 -902.36,474.74 -1490.37,557.46 -197.75,27.82 -425.75,47.01 -648.47,36.41 C 2569.77,5432.73 2372,5415 2177.52,5377.65 Z m 575.66,141.07 c 102.4,0 204.78,0 307.18,0 1072.37,-66.7 1863.91,-430.5 2400.5,-1039.84 179.57,-203.91 334.85,-439.61 352.68,-791.82 0,-56.13 0,-112.25 0,-168.38 C 5772.09,3050.9 5610.47,2684.7 5426.73,2346.87 5244.01,2010.93 5030.1,1706.01 4803.28,1413.97 4578.75,1124.88 4339.31,840.781 4079.72,581.191 3947.88,449.352 3794.14,348.398 3613.27,269.469 3432.16,190.441 3228.73,124.961 2992.09,112.48 c -58.39,0 -116.8,0 -175.19,0 -470.12,39.918 -823.71,209.329 -1085.35,470.989 -259.56,259.57 -498.7,544.071 -723.57,832.781 C 780.434,1708.41 568.594,2013.24 386.809,2351.43 205.891,2688 37.9492,3050.89 0,3518.68 c 0,56.13 0,112.25 0,168.38 10.8711,163.37 53.082,332.12 116.047,457.35 64.551,128.39 148.683,238.21 236.633,336.75 539.972,605.03 1333.16,974.2 2400.5,1037.56" /><path
         id="path50"
         style="fill:#7c161a;fill-opacity:1;fill-rule:evenodd;stroke:none"
         d="M 2047.83,4462.12 C 1812.17,4383.15 1606.65,4273.76 1426.66,4136.86 1243.08,3997.24 1102.12,3850.27 976.133,3645.61 860.641,3458 769.074,3210.9 769.074,2916.59 c 0,-291.92 95.86,-531.03 211.61,-722.3 117.386,-193.98 275.516,-360.76 455.076,-489.01 141.26,-100.89 284.19,-189 452.79,-255.71 55.19,-21.84 112.31,-42.87 172.93,-65.06 114.33,-41.84 242.54,-70.16 379.99,-94.2 421.89,-73.82 907.62,-23.31 1249.16,96.44 351.68,123.32 645.65,297.23 873.74,542.85 76.07,81.89 144.42,173.6 202.5,269.18 117.24,192.9 209.36,426.05 209.34,726.78 -0.02,432.42 -198.45,765.59 -414.11,995.96 -228.73,244.34 -523.52,421.58 -876.02,542.85 -233.8,80.43 -513.76,132.4 -819.13,130.09 -319.53,-2.41 -579.51,-52.05 -819.12,-132.34 z m 755.41,179.45 c 46.27,0 92.54,0 138.8,0 591.97,-19.34 1044.74,-195.06 1397.08,-457.6 348.16,-259.44 630.07,-610.83 682.6,-1161.95 0,-65.06 0,-130.11 0,-195.16 -31.85,-420.67 -220.09,-713.67 -445.96,-953.35 -115.3,-122.33 -243.71,-223.81 -389.09,-311.78 -96.34,-58.31 -197.06,-114.57 -309.46,-159.26 -274.31,-109.09 -593.65,-192.23 -976.13,-195.17 -18.96,0 -37.92,0 -56.87,0 -304.9,9.66 -573.75,48.72 -807.76,132.35 -59.65,21.31 -115.81,43.35 -170.65,65.04 -272.04,107.67 -509.09,271.12 -696.26,471.08 -76.29,81.49 -147.53,163.87 -209.333,257.96 -124.766,189.92 -215.324,414.98 -236.637,693.13 0,65.05 0,130.1 0,195.16 0.758,0 1.516,0 2.274,0 33.609,413.03 207.879,716.33 434.596,944.36 384.3,386.55 899.36,649.71 1642.8,675.19" /><g
         transform="scale(10)"
         id="g52" /><g
         transform="scale(10)"
         id="g54"><text
           id="text58"
           style="font-variant:normal;font-weight:bold;font-size:47.40418625px;font-family:Arial;-inkscape-font-specification:Arial-BoldMT;writing-mode:lr-tb;fill:#ffffff;fill-opacity:1;fill-rule:nonzero;stroke:none"
           transform="matrix(0.44813358,0.84248457,0.89396661,-0.4755185,58.4449,353.003)"><tspan
             id="tspan56"
             y="0"
             x="0">C</tspan></text>
<text
           id="text62"
           style="font-variant:normal;font-weight:bold;font-size:47.02279663px;font-family:Arial;-inkscape-font-specification:Arial-BoldMT;writing-mode:lr-tb;fill:#ffffff;fill-opacity:1;fill-rule:nonzero;stroke:none"
           transform="matrix(0.57743259,0.76941811,0.81643836,-0.61271795,72.723,379.747)"><tspan
             id="tspan60"
             y="0"
             x="0">L</tspan></text>
<text
           id="text66"
           style="font-variant:normal;font-weight:bold;font-size:46.63911438px;font-family:Arial;-inkscape-font-specification:Arial-BoldMT;writing-mode:lr-tb;fill:#ffffff;fill-opacity:1;fill-rule:nonzero;stroke:none"
           transform="matrix(0.68563496,0.68602296,0.72794554,-0.72753387,87.727,400.246)"><tspan
             id="tspan64"
             y="0"
             x="0">U</tspan></text>
<text
           id="text70"
           style="font-variant:normal;font-weight:bold;font-size:47.01716232px;font-family:Arial;-inkscape-font-specification:Arial-BoldMT;writing-mode:lr-tb;fill:#ffffff;fill-opacity:1;fill-rule:nonzero;stroke:none"
           transform="matrix(0.76827708,0.5791424,0.61453305,-0.8152264,109.17,421.871)"><tspan
             id="tspan68"
             y="0"
             x="0">B</tspan></text>
<text
           id="text74"
           style="font-variant:normal;font-weight:bold;font-size:47.32557297px;font-family:Arial;-inkscape-font-specification:Arial-BoldMT;writing-mode:lr-tb;fill:#ffffff;fill-opacity:1;fill-rule:nonzero;stroke:none"
           transform="matrix(0.82808102,0.4774038,0.50657568,-0.87868402,133.556,440.289)"><tspan
             id="tspan72"
             y="0"
             x="0">E</tspan></text>
<text
           id="text78"
           style="font-variant:normal;font-weight:bold;font-size:47.65314484px;font-family:Arial;-inkscape-font-specification:Arial-BoldMT;writing-mode:lr-tb;fill:#ffffff;fill-opacity:1;fill-rule:nonzero;stroke:none"
           transform="matrix(0.88606185,0.34060326,0.36141566,-0.94020711,167.88,459.319)"><tspan
             id="tspan76"
             y="0"
             x="0">D</tspan></text>
<text
           id="text82"
           style="font-variant:normal;font-weight:bold;font-size:47.8209877px;font-family:Arial;-inkscape-font-specification:Arial-BoldMT;writing-mode:lr-tb;fill:#ffffff;fill-opacity:1;fill-rule:nonzero;stroke:none"
           transform="matrix(0.91391534,0.24404614,0.25895976,-0.96976362,196.515,470.354)"><tspan
             id="tspan80"
             y="0"
             x="0">E</tspan></text>
<text
           id="text86"
           style="font-variant:normal;font-weight:bold;font-size:47.95679855px;font-family:Arial;-inkscape-font-specification:Arial-BoldMT;writing-mode:lr-tb;fill:#ffffff;fill-opacity:1;fill-rule:nonzero;stroke:none"
           transform="matrix(0.93564212,0.11962967,0.12694025,-0.99281858,233.084,479.66)"><tspan
             id="tspan84"
             y="0"
             x="0">A</tspan></text>
<text
           id="text90"
           style="font-variant:normal;font-weight:bold;font-size:47.99563217px;font-family:Arial;-inkscape-font-specification:Arial-BoldMT;writing-mode:lr-tb;fill:#ffffff;fill-opacity:1;fill-rule:nonzero;stroke:none"
           transform="matrix(0.941641,0.0380435,0.0403683,-0.999185,260.332,483.311)"><tspan
             id="tspan88"
             y="0"
             x="0">V</tspan></text>
<text
           id="text94"
           style="font-variant:normal;font-weight:bold;font-size:47.99282837px;font-family:Arial;-inkscape-font-specification:Arial-BoldMT;writing-mode:lr-tb;fill:#ffffff;fill-opacity:1;fill-rule:nonzero;stroke:none"
           transform="matrix(0.94129463,-0.04862266,-0.05159391,-0.99881722,288.624,484.539)"><tspan
             id="tspan92"
             y="0"
             x="0">E</tspan></text>
<text
           id="text98"
           style="font-variant:normal;font-weight:bold;font-size:47.94026184px;font-family:Arial;-inkscape-font-specification:Arial-BoldMT;writing-mode:lr-tb;fill:#ffffff;fill-opacity:1;fill-rule:nonzero;stroke:none"
           transform="matrix(0.93303217,-0.14072213,-0.14932183,-0.99004913,316.854,483.245)"><tspan
             id="tspan96"
             y="0"
             x="0">N</tspan></text>
<text
           id="text102"
           style="font-variant:normal;font-weight:bold;font-size:47.83953094px;font-family:Arial;-inkscape-font-specification:Arial-BoldMT;writing-mode:lr-tb;fill:#ffffff;fill-opacity:1;fill-rule:nonzero;stroke:none"
           transform="matrix(0.91692642,-0.23098321,-0.2450984,-0.97295774,347.274,478.634)"><tspan
             id="tspan100"
             y="0"
             x="0">T</tspan></text>
<text
           id="text106"
           style="font-variant:normal;font-weight:bold;font-size:47.68729401px;font-family:Arial;-inkscape-font-specification:Arial-BoldMT;writing-mode:lr-tb;fill:#ffffff;fill-opacity:1;fill-rule:nonzero;stroke:none"
           transform="matrix(0.89182903,-0.32320761,-0.34295929,-0.94632808,372.27,472.58)"><tspan
             id="tspan104"
             y="0"
             x="0">U</tspan></text>
<text
           id="text110"
           style="font-variant:normal;font-weight:bold;font-size:47.46134949px;font-family:Arial;-inkscape-font-specification:Arial-BoldMT;writing-mode:lr-tb;fill:#ffffff;fill-opacity:1;fill-rule:nonzero;stroke:none"
           transform="matrix(0.85274643,-0.42571735,-0.45173229,-0.9048562,401.106,462.274)"><tspan
             id="tspan108"
             y="0"
             x="0">R</tspan></text>
<text
           id="text114"
           style="font-variant:normal;font-weight:bold;font-size:47.18326187px;font-family:Arial;-inkscape-font-specification:Arial-BoldMT;writing-mode:lr-tb;fill:#ffffff;fill-opacity:1;fill-rule:nonzero;stroke:none"
           transform="matrix(0.80119767,-0.52652807,-0.55870456,-0.85015775,428.529,448.66)"><tspan
             id="tspan112"
             y="0"
             x="0">E</tspan></text>
<text
           id="text118"
           style="font-variant:normal;font-weight:bold;font-size:46.96486282px;font-family:Arial;-inkscape-font-specification:Arial-BoldMT;writing-mode:lr-tb;fill:#ffffff;fill-opacity:1;fill-rule:nonzero;stroke:none"
           transform="matrix(0.75754678,-0.59484404,-0.63119496,-0.80384114,452.056,432.857)"><tspan
             id="tspan116"
             y="0"
             x="0">I</tspan></text>
<text
           id="text122"
           style="font-variant:normal;font-weight:bold;font-size:46.70649719px;font-family:Arial;-inkscape-font-specification:Arial-BoldMT;writing-mode:lr-tb;fill:#ffffff;fill-opacity:1;fill-rule:nonzero;stroke:none"
           transform="matrix(0.701537,-0.66772586,-0.70852943,-0.74440727,460.829,426.701)"><tspan
             id="tspan120"
             y="0"
             x="0">R</tspan></text>
<text
           id="text126"
           style="font-variant:normal;font-weight:bold;font-size:47.00081253px;font-family:Arial;-inkscape-font-specification:Arial-BoldMT;writing-mode:lr-tb;fill:#ffffff;fill-opacity:1;fill-rule:nonzero;stroke:none"
           transform="matrix(0.58409066,-0.76494438,-0.81168843,-0.61978366,483.027,406.03)"><tspan
             id="tspan124"
             y="0"
             x="0">O</tspan></text>
<text
           id="text130"
           style="font-variant:normal;font-weight:bold;font-size:47.41535187px;font-family:Arial;-inkscape-font-specification:Arial-BoldMT;writing-mode:lr-tb;fill:#ffffff;fill-opacity:1;fill-rule:nonzero;stroke:none"
           transform="matrix(0.44381989,-0.84451055,-0.89611601,-0.47094017,502.931,380.023)"><tspan
             id="tspan128"
             y="0"
             x="0">S</tspan></text>
</g></g></g></svg>
